<svg xmlns="http://www.w3.org/2000/svg" version="1.1" xmlns:xlink="http://www.w3.org/1999/xlink" width="200" height="200"><svg xmlns="http://www.w3.org/2000/svg" version="1.1" xmlns:xlink="http://www.w3.org/1999/xlink" viewBox="0 0 200 200"><rect width="200" height="200" fill="url('#gradient')"></rect><defs><linearGradient id="SvgjsLinearGradient1001" gradientTransform="rotate(42 0.5 0.5)"><stop offset="0%" stop-color="#3ec6c4"></stop><stop offset="100%" stop-color="#ceb991"></stop></linearGradient></defs><g><g fill="#2f1f3d" transform="matrix(1.4760061543444813,0,0,1.4760061543444813,9.415432333575538,107.92724629040043)" stroke="#193d56" stroke-width="0.2"><path d="M12.95-14.22L12.95 0L9.54 0L4.50-8.85L4.50 0L1.07 0L1.07-14.22L4.50-14.22L9.53-5.37L9.53-14.22L12.95-14.22ZM20.08 0.20L20.08 0.20Q17.65 0.20 16.14-1.25Q14.64-2.71 14.64-5.03L14.64-5.03L14.64-5.30Q14.64-6.92 15.24-8.16Q15.84-9.40 16.99-10.08Q18.14-10.76 19.73-10.76L19.73-10.76Q21.95-10.76 23.24-9.38Q24.53-8.00 24.53-5.53L24.53-5.53L24.53-4.25L17.99-4.25Q18.16-3.36 18.76-2.85Q19.36-2.34 20.30-2.34L20.30-2.34Q21.87-2.34 22.74-3.44L22.74-3.44L24.25-1.66Q23.63-0.81 22.50-0.31Q21.38 0.20 20.08 0.20ZM19.71-8.22L19.71-8.22Q18.26-8.22 17.99-6.31L17.99-6.31L21.31-6.31L21.31-6.56Q21.33-7.35 20.91-7.79Q20.49-8.22 19.71-8.22ZM33.32-10.57L34.98-4.34L36.04-10.57L39.20-10.57L36.71 0L33.93 0L32.18-6.27L30.42 0L27.64 0L25.15-10.57L28.30-10.57L29.35-4.19L31.03-10.57L33.32-10.57ZM45.91-2.97L45.91-2.97Q45.91-3.39 45.47-3.64Q45.03-3.90 43.80-4.17Q42.57-4.44 41.77-4.89Q40.97-5.33 40.55-5.97Q40.13-6.60 40.13-7.42L40.13-7.42Q40.13-8.88 41.33-9.82Q42.53-10.76 44.47-10.76L44.47-10.76Q46.56-10.76 47.83-9.81Q49.10-8.87 49.10-7.32L49.10-7.32L45.80-7.32Q45.80-8.59 44.46-8.59L44.46-8.59Q43.95-8.59 43.59-8.31Q43.24-8.02 43.24-7.59L43.24-7.59Q43.24-7.15 43.67-6.88Q44.10-6.60 45.04-6.43Q45.99-6.25 46.70-6.01L46.70-6.01Q49.08-5.19 49.08-3.07L49.08-3.07Q49.08-1.62 47.80-0.71Q46.51 0.20 44.47 0.20L44.47 0.20Q43.12 0.20 42.05-0.29Q40.99-0.78 40.39-1.62Q39.79-2.46 39.79-3.39L39.79-3.39L42.87-3.39Q42.89-2.66 43.36-2.32Q43.83-1.98 44.56-1.98L44.56-1.98Q45.23-1.98 45.57-2.26Q45.91-2.53 45.91-2.97ZM50.77-14.22L55.27-14.22L58.45-4.33L61.61-14.22L66.12-14.22L66.12 0L62.69 0L62.69-3.32L63.02-10.12L59.58 0L57.31 0L53.87-10.13L54.20-3.32L54.20 0L50.77 0L50.77-14.22ZM67.74-4.82L67.73-5.38Q67.73-6.96 68.35-8.20Q68.96-9.43 70.12-10.10Q71.27-10.76 72.82-10.76L72.82-10.76Q75.20-10.76 76.56-9.29Q77.93-7.82 77.93-5.29L77.93-5.29L77.93-5.18Q77.93-2.71 76.56-1.25Q75.19 0.20 72.84 0.20L72.84 0.20Q70.59 0.20 69.22-1.16Q67.85-2.51 67.74-4.82L67.74-4.82ZM71.04-5.77L71.03-5.18Q71.03-3.71 71.48-3.03Q71.94-2.34 72.84-2.34L72.84-2.34Q74.60-2.34 74.64-5.05L74.64-5.05L74.64-5.38Q74.64-8.22 72.82-8.22L72.82-8.22Q71.17-8.22 71.04-5.77L71.04-5.77ZM79.32-10.57L82.40-10.57L82.51-9.33Q83.60-10.76 85.53-10.76L85.53-10.76Q87.18-10.76 87.99-9.78Q88.81-8.79 88.84-6.81L88.84-6.81L88.84 0L85.54 0L85.54-6.67Q85.54-7.47 85.21-7.85Q84.89-8.22 84.04-8.22L84.04-8.22Q83.08-8.22 82.61-7.46L82.61-7.46L82.61 0L79.32 0L79.32-10.57ZM97.21 0L94.90-3.94L93.97-3.01L93.97 0L90.68 0L90.68-15.01L93.97-15.01L93.97-7.04L94.31-7.48L96.79-10.57L100.73-10.57L97.03-6.22L100.98 0L97.21 0ZM106.51 0.20L106.51 0.20Q104.08 0.20 102.58-1.25Q101.07-2.71 101.07-5.03L101.07-5.03L101.07-5.30Q101.07-6.92 101.67-8.16Q102.28-9.40 103.43-10.08Q104.58-10.76 106.16-10.76L106.16-10.76Q108.39-10.76 109.68-9.38Q110.97-8.00 110.97-5.53L110.97-5.53L110.97-4.25L104.42-4.25Q104.60-3.36 105.20-2.85Q105.79-2.34 106.74-2.34L106.74-2.34Q108.30-2.34 109.18-3.44L109.18-3.44L110.68-1.66Q110.07-0.81 108.94-0.31Q107.81 0.20 106.51 0.20ZM106.14-8.22L106.14-8.22Q104.70-8.22 104.42-6.31L104.42-6.31L107.74-6.31L107.74-6.56Q107.76-7.35 107.34-7.79Q106.92-8.22 106.14-8.22ZM114.72-10.57L116.39-4.61L118.14-10.57L121.67-10.57L117.36 1.77L117.18 2.22Q116.26 4.27 113.94 4.27L113.94 4.27Q113.29 4.27 112.58 4.07L112.58 4.07L112.58 1.72L113.01 1.72Q113.70 1.72 114.07 1.52Q114.43 1.32 114.61 0.80L114.61 0.80L114.87 0.10L111.20-10.57L114.72-10.57Z"></path></g></g></svg><style>@media (prefers-color-scheme: light) { :root { filter: none; } }
@media (prefers-color-scheme: dark) { :root { filter: none; } }
</style></svg>